<?xml version="1.0" encoding="UTF-8"?><svg id="Layer_1" xmlns="http://www.w3.org/2000/svg" viewBox="0 0 1575.16 377"><path d="M1164.25,255.59v26.5h-127v13h110v30.25l-.75.75h-109.25v12.5h127v31h-193v-114h193ZM486.5,251.09v118.5h49v-70h3.5s.47,4.28.47,4.28l4.03.22v9h4.5s0,4,0,4h4s0,8.5,0,8.5l4.53.22.47,4.28h4.01s0,4.5,0,4.5h4.5s0,9,0,9h4.5s0,4,0,4h4.01s0,4.5,0,4.5h4.5s0,9,0,9h4.5s.22,4.03.22,4.03l4.28.47v4s44,0,44,0v-118.5h-44v61.5h-4s0-4.5,0-4.5h-4.51s0-4.5,0-4.5h-4.5s0-8.5,0-8.5l-4.28-.47-.22-4.03h-4s0-9,0-9h-4.5s0-4.5,0-4.5h-4.51s0-4,0-4h-4.5s0-9,0-9h-4.5s0-4,0-4h-4s0-9,0-9h-57.5ZM97.25,255.59l-.75.75v113.25h48.5v-39h47.5l.47,4.28,4.03.22v30.5h4.5s0,4,0,4h39.5v-44h-4s-.22-4.03-.22-4.03l-4.28-.47v-4.01s-4,0-4,0v-4.5s-9,0-9,0v-4h9v-4.5h8.5v-9h4v-22h-4v-8.5l-4.03-.22-.47-4.28h-9v-4.5h-126.25ZM192.5,286.59h4.5s0,12.5,0,12.5h-52v-16.5h47.5v4ZM653,251.09v118.5h48.5v-4c.31-.32,3.87.65,4.5-.75v-39.25h87.5v-30.5h-87.5v-13h87.5v-31h-140.5ZM1339.25,255.59v114h101v-31h-66v-12.5h47.75l.75-.75v-30.25h-48.5v-13h66v-26.5h-101ZM.75,255.59l-.75.75v113.25h53v-4h13v-4.5s4.5,0,4.5,0l.07-3.68.74-.79,3.69.46v-5s4.5,0,4.5,0v-13h4v-57h-4v-9h-4.5v-8.5l-4.03-.22-.47-4.28h-9v-4.5H.75ZM48.5,291.09h4s0,8.5,0,8.5h4.5v21.5c-1.51.14-3.43-.56-4.5.75v8.25h-4s0,4.5,0,4.5h-4.51s0,4,0,4h-13v-52h17.5v4.5ZM1177.25,255.59v4.5s4.5,0,4.5,0v4.51s4,0,4,0v4.51s4.5,0,4.5,0v8.5h4s0,4.5,0,4.5h5.01s0,4.5,0,4.5h4.01s0,4,0,4h4.51s0,5,0,5h4.5s0,8.5,0,8.5h4s0,4,0,4h4.51s0,4.5,0,4.5h4.51s.22,4.03.22,4.03l4.28.47v9h4.5v43.5h39.5v-43.5h4.5s0-4.5,0-4.5h4.5s0-9,0-9h4s.22-4.03.22-4.03l4.28-.47v-4s4.28-.47,4.28-.47l.22-4.03h4s0-9,0-9h5s0-4,0-4h4.01s0-4.5,0-4.5h4.5s0-8.5,0-8.5l4.28-.47.22-4.03h4.01s0-4.5,0-4.5l4.28-.47.22-4.03h4.51s0-4.5,0-4.5h-48.5v8.5h-4.5s0,4.5,0,4.5h-4.51s0,4.5,0,4.5h-4.51s0,4.5,0,4.5h-4s0,8.5,0,8.5h-4.5s0,4,0,4h-8v-4s-5,0-5,0v-4.51s-4,0-4,0v-8.5h-4.5s0-4.5,0-4.5h-4.51s0-4.5,0-4.5h-4.01s-.47-4.28-.47-4.28l-4.03-.22v-4s-48.5,0-48.5,0ZM951,334.59h-87.5v-83.5h-53v118.5h145v-35h-4.5ZM407,295.09v-4s-4,0-4,0c-.32-.32.65-3.87-.75-4.5h-12.25v-4h-48v4h-13.5v4.5s-4,0-4,0v4.01s-4.5,0-4.5,0v9l-4.28.47-.15,11.71.75.75,3.68.07v8.5h4.5s0,4.5,0,4.5h4.01s0,4.5,0,4.5h9v4h56.5v-4h13l.47-4.28,4.53-.22v-4h-48.5v-22h105.5v4s0,0,0,0v43.99h-4.5v4.51h-4.49s0,4,0,4h0v.49h-4.51v4.5h-4s0,4,0,4h-18v-8.5h-4.5v-9h-4s0,5,0,5l-4-.5v4.5h-9v4.5h-17.5v4h-75v-4h-17.5v-4.5h-13v-4.5s-4,.5-4,.5v-5h-9l-.47-4.28-4.03-.22v-4c-.31-.32-3.87.65-4.5-.75v-7.75h-4v-9h-4.5v-31c1.51-.14,3.43.56,4.5-.75v-8.25h4v-7.75c.63-1.4,4.19-.43,4.5-.75v-4.5s9,0,9,0v-4.5s4.5,0,4.5,0v-4s7.75,0,7.75,0c1.4-.63.43-4.19.75-4.5h13c.32-.31-.65-3.87.75-4.5h21.25v-4.5h74.5v4.5h22v4.5h17.5l.47,4.28,4.03.22v4s8.5,0,8.5,0v4.5s4.5,0,4.5,0v4.51s4.5,0,4.5,0v8.5h4.5v9h-62ZM1566.66,75h-4.5s0,4,0,4h-4.51s0,4.5,0,4.5h-4.51s0,4.5,0,4.5h-4.01s0,4.5,0,4.5h-9v4.5s-4.5,0-4.5,0v4.01s-4.28.47-4.28.47l-.22,4.03h-4s-.47,4.28-.47,4.28c-1.43.34-3.5.68-4.53-.53v-8.25h-4s0-4.5,0-4.5h4.01s0-4,0-4h-4.01c-.32-.31.65-3.87-.75-4.5h-7.75v4.5s-4.5,0-4.5,0v4.51s-4.5,0-4.5,0v4.01s-4,0-4,0v4.01h4.01s0,5,0,5h-4.51v-4.51s-4,0-4,0v4.51s-4.5,0-4.5,0v4.51s-4.5,0-4.5,0v8.5h-8.5l-.22,4.03-4.28.47v4.01s-4,0-4,0v4.51s-4.5,0-4.5,0v5s-4.52-.29-4.52-.29l-.47,4.29h-4c-.32.31.65,3.87-.75,4.5h-7.75v4s-4.5,0-4.5,0v4.51s-4.5,0-4.5,0v4.01h4.51s0,4.5,0,4.5h4.01v-4.5s8.5,0,8.5,0v-4s-4.5,0-4.5,0v-4.51h5.01v4s4,.5,4,.5v-9h5s.47,4.28.47,4.28l3.53.22v-4.5s8.5,0,8.5,0v-4s-4.5,0-4.5,0v-4.51h5.01v4.01s4,.5,4,.5v-9.5h4s0-3.99,0-3.99h4.71s.29,3.99.29,3.99h8.5v-4c-1.51.9-2.87.3-4.44-.05l-.06-4.45h4.51s0-4.5,0-4.5h4.51v5.01h-4.01s0,4,0,4h8v-4.5s4.5,0,4.5,0v-4.5s9,0,9,0v-4h8.5v-4.5h8.5v-4.5h9c.14-1.51-.56-3.43.75-4.5h12.25v-4h14v13.5h-4.5s0,4.5,0,4.5h-4.51s0,4,0,4h-4.51s0,4.5,0,4.5h-4.51s0,4,0,4h-8.5v4.5s-4.5,0-4.5,0v5s-9,0-9,0v4h-8.5v4.5h-8.5v4h-9v4.5h-13v4.5s-4.5,0-4.5,0v-4.51s-5,0-5,0v-4.5s-3.53.22-3.53.22l-.47,4.28h-12.5v12.75c-1.08,1.18-3.93,1.18-5,0v-8.25h-4.5s0,4.5,0,4.5h-4.01c-.32.31.65,3.87-.75,4.5h-7.75v4h12.5v4h8.75c1.31,1.07.61,2.99.75,4.5h12.5v4s4.5,0,4.5,0v5.01s4.5,0,4.5,0v4.01s4.5,0,4.5,0v4.5s8.5,0,8.5,0v4.5h9v8.5h4.5s0,4.5,0,4.5c.32.32,3.87-.65,4.5.75v8.25h4s0,4,0,4c.32.32,3.87-.65,4.5.75v8.25h4v8.5h4.5v9h4.5v13h4.5v13c1.51.14,3.43-.56,4.5.75v16.75h4v22h4.5v35c1.51.14,3.43-.56,4.5.75v17.25h-5v-17.5h-4v-35h-4.5v-17.5c-1.51-.14-3.43.56-4.5-.75v-12.25h-4v-13.5h-5v-8.5h-4v-9h-4.5v-8.5l-4.03-.22-.47-4.28h-4.01s0-4,0-4c-.32-.32-3.87.65-4.5-.75v-8.25h-4.5s0-4.5,0-4.5h-4.51s0-4.5,0-4.5h-4.01s0-4,0-4h-4.51s0-4.5,0-4.5h-4.51s0-4.5,0-4.5h-4.01s0-4.5,0-4.5h-5.01s0-4.5,0-4.5h-8.5v-4h-12.25c-1.31-1.07-.61-2.99-.75-4.5h-17.5v-4h-17.5v4c-3.73-.16-4.5.13-4,4h4s0,4.5,0,4.5h9v4s4.5,0,4.5,0v4.5s8.5,0,8.5,0l.05,4.45,4.45.55-.22,4.03-4.28.47v8.5h-4v9h-4.5v8.5h-4.5v12.5h4.5v5h-4.5v-4.5s-5,0-5,0v-12.75c1.19-1.37,3.35-.56,5-.75v-8.5h4v-8.25c1.07-1.31,2.99-.61,4.5-.75v-8l-4.03-.22-.47-4.28h-9v-4.5s-4,0-4,0v-4.5s-8.5,0-8.5,0v8.5l4.28.47.22,4.03h4s0,13.5,0,13.5h-4s0,4.5,0,4.5h-4.5s0,8.5,0,8.5h-4.5s0,4.5,0,4.5h-4.01s0,4,0,4c-.35.36-4.32-.71-5,.75v8.25h-4.5v-9h4.5s0-4.5,0-4.5h4.51s0-4.5,0-4.5h4.5s0-8.5,0-8.5h4s0-4.5,0-4.5h4.5s0-8.5,0-8.5h-4.5s0-4,0-4h-4.01s0-4.5,0-4.5h-4.5s0-9,0-9h-4.5s-.22-4.03-.22-4.03l-3.78-.47v8.5h4v12.75c.68,1.45,4.65.39,5,.75l-.22,8.53-4.78.47v4.5s-8.5,0-8.5,0v4.5s-4,0-4,0v4.01s-4.5,0-4.5,0v4.51s-4.5,0-4.5,0v4.01s-4.5,0-4.5,0v4.51s-4.5,0-4.5,0v4.5s-4.5,0-4.5,0v-5s4.5,0,4.5,0v-4.01s4,0,4,0v-4.51s5,0,5,0v-4.51s4,0,4,0v-4.01s4.5,0,4.5,0v-4.51s4,0,4,0v-4.51s4.5,0,4.5,0v-12.5c-1.51-.14-3.43.56-4.5-.75v-12.75h-3.5v9h-4.5v8.5h-4.5s0,4.5,0,4.5h-4.51s0,4.5,0,4.5h-4.51s0,4.5,0,4.5h-4.01c-.32.31.65,3.87-.75,4.5h-8.25v4s-4,0-4,0l-.07,3.68-.75.75-4.18.07v-5.01h4.51s0-4,0-4h4.51s0-4.5,0-4.5h4.01s0-4.5,0-4.5h4.51s0-4.5,0-4.5h4.5s0-8.5,0-8.5h4v-9h5v-17h-9v8.5h-4s0,4.5,0,4.5h-9v-8.5h-4.5v-8.5h-4.5v-14h4.5v-8.5h9v4.5s4,0,4,0v-4.51s4.5,0,4.5,0l.22,4.03,4.28.47v4.01s4.5,0,4.5,0v-4.01s4,0,4,0v-4.51s4.5,0,4.5,0v-4.51s4,0,4,0v-4.5s9,0,9,0v-4.5s4.5,0,4.5,0v-3.22s-4.5-.78-4.5-.78v-8.5h-4.5v-8.97h4.19v-8.39h4.19v-4.19h4.19v-8.39h4.19v-4.19h4.19v-4.19h4.19v-4.19h4.19v-4.19h8.24v-4.19h4.19v-2.09h2.21v-9h4s0-4,0-4h4.5s0-9,0-9h4.5v-8.5h4.5s0-4.5,0-4.5h4.5s0-8.5,0-8.5h4s0-4.5,0-4.5h4.5s0-9,0-9h4.5s0-4.5,0-4.5h4.01s0-4,0-4c.35-.36,4.32.71,5-.75v-8.25h4s0-4,0-4h4.51s0-5,0-5h4.51s0-4,0-4h8.5V0h22v18h-4v13h-4.5v9h-4v8.5h-4.5v9h-4.5s0,4.5,0,4.5h-4.5s0,8.5,0,8.5h-4.5s0,4.5,0,4.5h-4s0,8.5,0,8.5h-4.5s0,4.5,0,4.5l-4.03.22-.47,4.28h-4.5s0,8.5,0,8.5l-4.28.47-.22,4.03h-4s-.47,4.28-.47,4.28l-4.03.22v4.51s-4,0-4,0l-.22,4.03-4.28.47v4.01s-4.78.47-4.78.47l-.22,4.03h-4.01s0,4,0,4l-4.03.22-.47,4.28h-4s-.47,4.79-.47,4.79l-4.03-.29v8.5h4s0-4.5,0-4.5h4.01s0-4,0-4h4.51s0-5,0-5h4.51s0-4,0-4h4.51s0-4.5,0-4.5h4.51s0-4.5,0-4.5h4.01s0-4,0-4h4.51s0-4.5,0-4.5h4.51s0-4.5,0-4.5h4.01s.47-4.28.47-4.28l4.53-.22v-4.01s4,0,4,0v-4.51s4.5,0,4.5,0v-4.51s4.5,0,4.5,0v-4.01s4,0,4,0l.22-4.53,4.28-.47v-4.01s4.5,0,4.5,0v-4.5s8.5,0,8.5,0l.47-4.28,4.03-.22v-4.01s4.5,0,4.5,0v-4.51s4,0,4,0v-4.5s9,0,9,0c.14-1.51-.56-3.43.75-4.5h8.25v-4h18v4s4,0,4,0v9.5h-4s-.22,4.03-.22,4.03l-4.28.47v8.5ZM1391.16,202h-4.01v4.01h4.01v-4.01ZM1417.16,206h-4.01v4.01h4.01v-4.01ZM1483.16,140.5h4.51v-4.51h-4.51v4.51ZM1422.16,144.5h4s-.22-3.53-.22-3.53c-.58-.83-2.78-.38-3.78-.47v4ZM1422.16,149.5v4c1-.09,3.21.36,3.78-.47l.22-3.53h-4ZM1426.16,158h-4.01v4.01h4.01v-4.01ZM1430.16,157.5v-4s-3.53.22-3.53.22c-.83.58-.38,2.78-.47,3.78h4ZM1430.16,145h-4.01v4.01h4.01v-4.01ZM1435.16,167v4.01h4.01v-4.01h-4.01ZM1435.16,141l-4.5-.5v4s4.5,0,4.5,0v-3.5ZM1439.16,136h-4.01v4.51h4.01v-4.51ZM1522.16,83.5h-3.51v4.51h3.51v-4.51ZM1526.66,97h-4s0,4,0,4c1-.09,3.21.36,3.78-.47l.22-3.53ZM1526.66,79h-4.01v4.01h4.01v-4.01Z"/></svg>