<?xml version="1.0" encoding="UTF-8"?><svg id="Layer_1" xmlns="http://www.w3.org/2000/svg" viewBox="0 0 604.5 447"><defs><style>.cls-1{fill:#231f20;}</style></defs><path class="cls-1" d="M560.5,0v18h-4v13h-4.5v9h-4v8.5h-4.5v9h-4.5s0,4.5,0,4.5h-4.5s0,8.5,0,8.5h-4.5s0,4.5,0,4.5h-4s0,8.5,0,8.5h-4.5s0,4.5,0,4.5l-4.03.22-.47,4.28h-4.5s0,8.5,0,8.5l-4.28.47-.22,4.03h-4s-.47,4.28-.47,4.28l-4.03.22v4.51s-4,0-4,0l-.22,4.03-4.28.47v4s-4.78.47-4.78.47l-.22,4.03h-4.01s0,4,0,4l-4.03.22-.47,4.28h-4s-.47,4.79-.47,4.79l-4.03-.29v8.5h4s0-4.5,0-4.5h4.01s0-4,0-4h4.51s0-5,0-5h4.51s0-4,0-4h4.51s0-4.5,0-4.5h4.51s0-4.5,0-4.5h4.01s0-4,0-4h4.51s0-4.5,0-4.5h4.51s0-4.5,0-4.5h4.01s.47-4.28.47-4.28l4.53-.22v-4.01s4,0,4,0v-4.51s4.5,0,4.5,0v-4.51s4.5,0,4.5,0v-4.01s4,0,4,0l.22-4.53,4.28-.47v-4.01s4.5,0,4.5,0v-4.5s8.5,0,8.5,0l.47-4.28,4.03-.22v-4.01s4.5,0,4.5,0v-4.51s4,0,4,0v-4.5s9,0,9,0c.14-1.51-.56-3.43.75-4.5h8.25v-4h18v4s4,0,4,0v9.5h-4s-.22,4.03-.22,4.03l-4.28.47v8.5h-4.5s0,4,0,4h-4.51s0,4.5,0,4.5h-4.51s0,4.5,0,4.5h-4.01s0,4.5,0,4.5h-9v4.5s-4.5,0-4.5,0v4.01s-4.28.47-4.28.47l-.22,4.03h-4s-.47,4.28-.47,4.28c-1.43.34-3.5.68-4.53-.53v-8.25h-4s0-4.5,0-4.5h4.01s0-4,0-4h-4.01c-.32-.31.65-3.87-.75-4.5h-7.75v4.5s-4.5,0-4.5,0v4.51s-4.5,0-4.5,0v4.01s-4,0-4,0v4.01s4.01,0,4.01,0v5.01s-4.51,0-4.51,0v-4.51s-4,0-4,0v4.51s-4.5,0-4.5,0v4.51s-4.5,0-4.5,0v8.5h-8.5l-.22,4.03-4.28.47v4.01s-4,0-4,0v4.51s-4.5,0-4.5,0v5s-4.52-.29-4.52-.29l-.47,4.29h-4c-.32.31.65,3.87-.75,4.5h-7.75v4s-4.5,0-4.5,0v4.51s-4.5,0-4.5,0v4.01h4.51s0,4.5,0,4.5h4.01s0-4.5,0-4.5h8.5v-4s-4.5,0-4.5,0v-4.51s5.01,0,5.01,0v4s4,.5,4,.5v-9h5s.47,4.28.47,4.28l3.53.22v-4.5s8.5,0,8.5,0v-4s-4.5,0-4.5,0v-4.51s5.01,0,5.01,0v4.01s4,.5,4,.5v-9.5h4s0-3.99,0-3.99h4.71s.29,3.99.29,3.99h8.5v-4c-1.51.9-2.87.3-4.44-.06l-.06-4.45h4.51s0-4.5,0-4.5h4.51s0,5.01,0,5.01h-4.01s0,4,0,4h8v-4.5s4.5,0,4.5,0v-4.5s9,0,9,0v-4h8.5v-4.5h8.5v-4.5h9c.14-1.51-.56-3.43.75-4.5h12.25v-4h14v13.5h-4.5s0,4.5,0,4.5h-4.51s0,4,0,4h-4.51s0,4.5,0,4.5h-4.51s0,4,0,4h-8.5v4.5s-4.5,0-4.5,0v5s-9,0-9,0v4h-8.5v4.5h-8.5v4h-9v4.5h-13v4.5s-4.5,0-4.5,0v-4.51s-5,0-5,0v-4.5s-3.53.22-3.53.22l-.47,4.28h-12.5v12.75c-1.08,1.18-3.93,1.18-5,0v-8.25h-4.5s0,4.5,0,4.5h-4.01c-.32.31.65,3.87-.75,4.5h-7.75v4h12.5v4h8.75c1.31,1.07.61,2.99.75,4.5h12.5v4s4.5,0,4.5,0v5.01s4.5,0,4.5,0v4.01s4.5,0,4.5,0v4.5s8.5,0,8.5,0v4.5h9v8.5h4.5s0,4.5,0,4.5c.32.32,3.87-.65,4.5.75v8.25h4s0,4,0,4c.32.32,3.87-.65,4.5.75v8.25h4v8.5h4.5v9h4.5v13h4.5v13c1.51.14,3.43-.56,4.5.75v16.75h4v22h4.5v35c1.51.14,3.43-.56,4.5.75v17.25h-5v-17.5h-4v-35h-4.5v-17.5c-1.51-.14-3.43.56-4.5-.75v-12.25h-4v-13.5h-5v-8.5h-4v-9h-4.5v-8.5l-4.03-.22-.47-4.28h-4.01s0-4,0-4c-.32-.32-3.87.65-4.5-.75v-8.25h-4.5s0-4.5,0-4.5h-4.51s0-4.5,0-4.5h-4.01s0-4,0-4h-4.51s0-4.5,0-4.5h-4.51s0-4.5,0-4.5h-4.01s0-4.5,0-4.5h-5.01s0-4.5,0-4.5h-8.5v-4h-12.25c-1.31-1.07-.61-2.99-.75-4.5h-17.5v-4h-17.5v4c-3.73-.16-4.5.13-4,4h4s0,4.5,0,4.5h9v4s4.5,0,4.5,0v4.5s8.5,0,8.5,0l.05,4.45,4.45.55-.22,4.03-4.28.47v8.5h-4v9h-4.5v8.5h-4.5v12.5h4.5v40h-145v-118.5h53v83.5h21.5v-5s4.5,0,4.5,0v-4.01s4,0,4,0v-4.51s5,0,5,0v-4.51s4,0,4,0v-4.01s4.5,0,4.5,0v-4.51s4,0,4,0v-4.51s4.5,0,4.5,0v-12.5c-1.51-.14-3.43.56-4.5-.75v-12.75h-3.5v9h-4.5v8.5h-4.5s0,4.5,0,4.5h-4.51s0,4.5,0,4.5h-4.51s0,4.5,0,4.5h-4.01c-.32.31.65,3.87-.75,4.5h-8.25v4s-4,0-4,0l-.07,3.68-.75.75-4.18.07v-5.01s4.51,0,4.51,0v-4.01s4.5,0,4.5,0v-4.51s4,0,4,0v-4.51s4.5,0,4.5,0v-4.51s4.5,0,4.5,0v-8.5h4v-9h5v-17h-9v8.5h-4s0,4.5,0,4.5h-9v-8.5h-4.5v-8.5h-4.5v-14h4.5v-8.5h9v4.5s4,0,4,0v-4.51s4.5,0,4.5,0l.22,4.03,4.28.47v4.01s4.5,0,4.5,0v-4.01s4,0,4,0v-4.51s4.5,0,4.5,0v-4.51s4,0,4,0v-4.5s9,0,9,0v-4.5s4.5,0,4.5,0v-3.22s-4.5-.78-4.5-.78v-8.5h-4.5v-9h-4s0,5,0,5l-4-.5v4.5h-9v4.5h-17.5v4h-75v-4h-17.5v-4.5h-13v-4.5s-4,.5-4,.5v-5h-9l-.47-4.28-4.03-.22v-4c-.31-.32-3.87.65-4.5-.75v-7.75h-4v-9h-4.5v-31c1.51-.14,3.43.56,4.5-.75v-8.25h4v-7.75c.63-1.4,4.19-.43,4.5-.75v-4.5s9,0,9,0v-4.5s4.5,0,4.5,0v-4s7.75,0,7.75,0c1.4-.63.43-4.19.75-4.5h13c.32-.31-.65-3.87.75-4.5h21.25v-4.5h74.5v4.5h22v4.5h17.5l.47,4.28,4.03.22v4s8.5,0,8.5,0v4.5s4.5,0,4.5,0v4.51s4.5,0,4.5,0v8.5h4.5v9h-62v-4s-4,0-4,0c-.32-.32.65-3.87-.75-4.5h-12.25v-4h-48v4h-13.5v4.5s-4,0-4,0v4.01s-4.5,0-4.5,0v9l-4.28.47-.15,11.71.75.75,3.68.07v8.5h4.5s0,4.5,0,4.5h4.01s0,4.5,0,4.5h9v4h56.5v-4h13l.47-4.28,4.53-.22v-4h-48.5v-22h105.5v4s4,0,4,0v-9h4s0-4,0-4h4.5s0-9,0-9h4.5v-8.5h4.5s0-4.5,0-4.5h4.5s0-8.5,0-8.5h4s0-4.5,0-4.5h4.5s0-9,0-9h4.5s0-4.5,0-4.5h4.01s0-4,0-4c.35-.36,4.32.71,5-.75v-8.25h4s0-4,0-4h4.51s0-5,0-5h4.51s0-4,0-4h8.5V0h22ZM556,79h-4.01v4.01h4.01v-4.01ZM551.5,83.5h-3.51v4.51h3.51v-4.51ZM556,97h-4s0,4,0,4c1-.09,3.21.36,3.78-.47l.22-3.53ZM468.5,136h-4.01v4.51h4.01v-4.51ZM517,136h-4.51v4.51h4.51v-4.51ZM455.5,144.5l-.22-3.53c-.58-.83-2.78-.38-3.78-.47v4s4,0,4,0ZM464.5,141l-4.5-.5v4s4.5,0,4.5,0v-3.5ZM459.5,145h-4.01v4.01h4.01v-4.01ZM455.5,149.5h-4s0,4,0,4c1-.09,3.21.36,3.78-.47l.22-3.53ZM459.5,153.5l-3.53.22c-.83.58-.38,2.78-.47,3.78h4s0-4,0-4ZM455.5,158h-4.01v4.01h4.01v-4.01ZM468.5,167h-4.01v4.01h4.01v-4.01ZM420.5,202h-4.01v4.01h4.01v-4.01ZM429.5,206v8.5h4v12.75c.68,1.45,4.65.39,5,.75l-.22,8.53-4.78.47v4.5s-8.5,0-8.5,0v4.5s-4,0-4,0v4.01s-4.5,0-4.5,0v4.51s-4.5,0-4.5,0v4.01s-4.5,0-4.5,0v4.51s-4.5,0-4.5,0v4.5h26v-9h4.5s0-4.5,0-4.5h4.51s0-4.5,0-4.5h4.5s0-8.5,0-8.5h4s0-4.5,0-4.5h4.5s0-8.5,0-8.5h-4.5s0-4,0-4h-4.01s0-4.5,0-4.5h-4.5s0-9,0-9h-4.5s-.22-4.03-.22-4.03l-3.78-.47ZM446.5,206h-4.01v4.01h4.01v-4.01ZM455.5,210.5h-8.5v8.5l4.28.47.22,4.03h4s0,13.5,0,13.5h-4s0,4.5,0,4.5h-4.5s0,8.5,0,8.5h-4.5s0,4.5,0,4.5h-4.01s0,4,0,4c-.35.36-4.32-.71-5,.75v8.25h31v-4.5s-5,0-5,0v-12.75c1.19-1.37,3.35-.56,5-.75v-8.5h4v-8.25c1.07-1.31,2.99-.61,4.5-.75v-8l-4.03-.22-.47-4.28h-9v-4.5s-4,0-4,0v-4.5Z"/><polygon class="cls-1" points="193 333 193 359.5 66 359.5 66 372.5 176 372.5 176 402.75 175.25 403.5 66 403.5 66 416 193 416 193 447 0 447 0 333 193 333"/><polygon class="cls-1" points="57.5 184 57.5 193 61.5 193 61.5 197 66 197 66 206 70.5 206 70.5 210 75 210 75 214.5 79.5 214.5 79.5 223.5 83.5 223.5 83.72 227.53 88 228 88 236.5 92.5 236.5 92.5 241 97 241 97 245.5 101 245.5 101 184 145 184 145 302.5 101 302.5 101 298.5 96.72 298.03 96.5 294 92 294 92 285 87.5 285 87.5 280.5 83.5 280.5 83.5 276.5 79 276.5 79 267.5 74.5 267.5 74.5 263 70.5 263 70.03 258.72 65.5 258.5 65.5 250 61.5 250 61.5 246 57 246 57 237 52.97 236.78 52.5 232.5 49 232.5 49 302.5 0 302.5 0 184 57.5 184"/><path class="cls-1" d="M223.5,39.5v4.5h9l.47,4.28,4.03.22v8.5h4v22h-4v9h-8.5v4.5h-9v4h9v4.5s4,0,4,0v4.01s4.28.47,4.28.47l.22,4.03h4s0,44,0,44h-39.5v-4s-4.5,0-4.5,0v-30.5l-4.03-.22-.47-4.28h-47.5v39h-48.5V40.25l.75-.75h126.25ZM192.5,66.5h-47.5v16.5h52v-12.5h-4.5s0-4,0-4Z"/><path class="cls-1" d="M307,184v31h-87.5v13h87.5v30.5h-87.5v39.25c-.63,1.4-4.19.43-4.5.75v4s-48.5,0-48.5,0v-118.5h140.5Z"/><polygon class="cls-1" points="469 333 469 359.5 403 359.5 403 372.5 451.5 372.5 451.5 402.75 450.75 403.5 403 403.5 403 416 469 416 469 447 368 447 368 333 469 333"/><path class="cls-1" d="M61.5,39.5v4.5h9l.47,4.28,4.03.22v8.5h4.5v9h4v57h-4v13h-4.5s0,5,0,5l-3.69-.46-.74.79-.07,3.68h-4.51s0,4.5,0,4.5h-13v4H0V40.25l.75-.75h60.75ZM48.5,70.5h-17.5v52h13v-4s4.5,0,4.5,0v-4.51s4,0,4,0v-8.25c1.07-1.31,2.99-.61,4.5-.75v-21.5h-4.5v-8.5h-4s0-4.5,0-4.5Z"/><polygon class="cls-1" points="254.5 333 254.5 337 258.53 337.22 259 341.5 263 341.5 263 346 267.5 346 267.5 350.5 272 350.5 272 359 276 359 276 363.5 281 363.5 281 367.5 289 367.5 289 363.5 293.5 363.5 293.5 355 297.5 355 297.5 350.5 302 350.5 302 346 306.5 346 306.5 341.5 311 341.5 311 333 359.5 333 359.5 337.5 355 337.5 354.78 341.53 350.5 342 350.5 346.5 346.5 346.5 346.28 350.53 342 351 342 359.5 337.5 359.5 337.5 364 333.5 364 333.5 368 328.5 368 328.5 377 324.5 377 324.28 381.03 320 381.5 320 385.5 315.72 385.97 315.5 390 311.5 390 311.5 399 307 399 307 403.5 302.5 403.5 302.5 447 263 447 263 403.5 258.5 403.5 258.5 394.5 254.22 394.03 254 390 249.5 390 249.5 385.5 245 385.5 245 381.5 241 381.5 241 373 236.5 373 236.5 368 232 368 232 364 228 364 228 359.5 223 359.5 223 355 219 355 219 346.5 214.5 346.5 214.5 342 210.5 342 210.5 337.5 206 337.5 206 333 254.5 333"/><polygon class="cls-1" points="548 109.5 548 114.5 543.5 114.5 543.5 119 538.5 119 538.5 114 543 114 543 109.5 548 109.5"/></svg>